<svg xmlns="http://www.w3.org/2000/svg" xmlns:xlink="http://www.w3.org/1999/xlink" width="500" zoomAndPan="magnify" viewBox="0 0 375 374.999991" height="500" preserveAspectRatio="xMidYMid meet" version="1.0"><defs><g/><clipPath id="b16e18a04c"><path d="M 68.746094 72.921875 L 298.667969 72.921875 L 298.667969 302.84375 L 68.746094 302.84375 Z M 68.746094 72.921875 " clip-rule="nonzero"/></clipPath><clipPath id="fa6a228aea"><path d="M 183.707031 72.921875 C 120.214844 72.921875 68.746094 124.390625 68.746094 187.882812 C 68.746094 251.375 120.214844 302.84375 183.707031 302.84375 C 247.199219 302.84375 298.667969 251.375 298.667969 187.882812 C 298.667969 124.390625 247.199219 72.921875 183.707031 72.921875 Z M 183.707031 72.921875 " clip-rule="nonzero"/></clipPath></defs><rect x="-37.5" width="450" fill="#ffffff" y="-37.499999" height="449.999989" fill-opacity="1"/><rect x="-37.5" width="450" fill="#e1e1e1" y="-37.499999" height="449.999989" fill-opacity="1"/><g clip-path="url(#b16e18a04c)"><g clip-path="url(#fa6a228aea)"><path fill="#1f2947" d="M 68.746094 72.921875 L 298.667969 72.921875 L 298.667969 302.84375 L 68.746094 302.84375 Z M 68.746094 72.921875 " fill-opacity="1" fill-rule="nonzero"/></g></g><g fill="#ffffff" fill-opacity="1"><g transform="translate(166.037689, 267.133319)"><g><path d="M 18.890625 -42.234375 C 13.390625 -35.035156 10.640625 -27.253906 10.640625 -18.890625 C 10.640625 -8.941406 14.820312 -1.21875 23.1875 4.28125 C 28.050781 7.5625 33.578125 9.203125 39.765625 9.203125 C 45.960938 9.203125 51.335938 7.988281 55.890625 5.5625 C 64.472656 1.113281 69.289062 -6.347656 70.34375 -16.828125 C 70.445312 -17.566406 70.5 -18.3125 70.5 -19.0625 C 70.5 -22.976562 69.414062 -27.210938 67.25 -31.765625 C 65.082031 -36.316406 61.5625 -40.492188 56.6875 -44.296875 L 28.109375 -66.859375 C 21.859375 -71.722656 18.734375 -78.019531 18.734375 -85.75 C 18.734375 -93.476562 21.222656 -100.015625 26.203125 -105.359375 C 31.179688 -110.703125 37.90625 -113.375 46.375 -113.375 C 50.601562 -113.375 55.207031 -112.847656 60.1875 -111.796875 L 66.53125 -111.796875 L 66.859375 -92.265625 L 65.265625 -92.265625 C 65.160156 -97.347656 63.332031 -101.34375 59.78125 -104.25 C 56.238281 -107.15625 51.789062 -108.609375 46.4375 -108.609375 C 41.09375 -108.609375 36.617188 -106.835938 33.015625 -103.296875 C 29.421875 -99.753906 27.625 -95.203125 27.625 -89.640625 C 27.625 -84.078125 29.957031 -79.445312 34.625 -75.75 L 64 -52.5625 C 75.644531 -43.351562 81.46875 -32.238281 81.46875 -19.21875 C 81.46875 -9.476562 77.601562 -1.113281 69.875 5.875 C 63.195312 11.90625 54.300781 14.921875 43.1875 14.921875 C 36.414062 14.921875 30.382812 13.648438 25.09375 11.109375 C 15.132812 6.453125 9.148438 -1.484375 7.140625 -12.703125 C 6.828125 -14.398438 6.671875 -16.546875 6.671875 -19.140625 C 6.671875 -21.734375 7.410156 -25.273438 8.890625 -29.765625 C 10.367188 -34.265625 13.226562 -38.789062 17.46875 -43.34375 Z M 18.890625 -42.234375 "/></g></g></g><g fill="#ffffff" fill-opacity="1"><g transform="translate(97.130558, 235.88332)"><g><path d="M 18.890625 -116.5625 C 25.773438 -119.414062 32.394531 -120.84375 38.75 -120.84375 C 44.039062 -120.84375 49.488281 -118.882812 55.09375 -114.96875 C 58.164062 -112.851562 61.609375 -108.722656 65.421875 -102.578125 C 67.960938 -98.347656 71.191406 -90.675781 75.109375 -79.5625 L 94.484375 -24.609375 C 98.929688 -12.328125 103.457031 -2.5625 108.0625 4.6875 C 112.664062 11.9375 116.875 17.382812 120.6875 21.03125 C 124.5 24.6875 128.46875 27.253906 132.59375 28.734375 C 136.71875 30.222656 140.128906 30.96875 142.828125 30.96875 C 145.535156 30.96875 147.945312 30.753906 150.0625 30.328125 L 150.21875 31.921875 C 145.132812 33.609375 140.15625 34.453125 135.28125 34.453125 C 130.414062 34.453125 125.546875 33.207031 120.671875 30.71875 C 115.804688 28.238281 111.257812 24.773438 107.03125 20.328125 C 97.925781 11.117188 90.195312 -2.90625 83.84375 -21.75 L 77.65625 -39.859375 L 34.140625 -39.859375 L 23.1875 -11.59375 C 22.65625 -10.320312 22.390625 -9.050781 22.390625 -7.78125 C 22.390625 -6.507812 22.941406 -5.160156 24.046875 -3.734375 C 25.160156 -2.304688 26.882812 -1.59375 29.21875 -1.59375 L 30.484375 -1.59375 L 30.484375 0 L -1.4375 0 L -1.4375 -1.59375 L 0 -1.59375 C 2.539062 -1.59375 5.023438 -2.359375 7.453125 -3.890625 C 9.890625 -5.421875 11.90625 -7.722656 13.5 -10.796875 L 52.875 -105.125 C 47.15625 -113.269531 40.0625 -117.34375 31.59375 -117.34375 C 27.78125 -117.34375 23.707031 -116.550781 19.375 -114.96875 Z M 35.890625 -44.625 L 76.0625 -44.625 L 63.515625 -81.625 C 61.078125 -88.71875 58.851562 -94.273438 56.84375 -98.296875 Z M 35.890625 -44.625 "/></g></g></g><g fill="#ffffff" fill-opacity="1"><g transform="translate(143.637581, 106.037244)"><g><path d="M -0.09375 0.03125 L 0.015625 -7.703125 L 1.03125 -8.109375 L 6.421875 -2.640625 L 5.203125 -2.140625 L 3.984375 -3.40625 L 1.125 -2.21875 L 1.125 -0.46875 Z M 1.125 -3.40625 L 3.1875 -4.25 L 1.109375 -6.421875 Z M 1.125 -3.40625 "/></g></g></g><g fill="#ffffff" fill-opacity="1"><g transform="translate(156.841071, 101.191143)"><g><path d="M 0.71875 -0.171875 L -1 -7.0625 L 0.25 -7.375 L 1.015625 -4.3125 L 3.125 -8.09375 L 4.65625 -8.484375 L 2.265625 -4.234375 C 2.566406 -4.160156 2.859375 -3.992188 3.140625 -3.734375 L 4.21875 -2.734375 C 4.40625 -2.554688 4.570312 -2.441406 4.71875 -2.390625 C 4.875 -2.347656 5.046875 -2.351562 5.234375 -2.40625 C 5.472656 -2.457031 5.664062 -2.566406 5.8125 -2.734375 L 6.328125 -1.828125 C 6.242188 -1.691406 6.109375 -1.570312 5.921875 -1.46875 C 5.742188 -1.363281 5.550781 -1.285156 5.34375 -1.234375 C 4.613281 -1.054688 3.960938 -1.238281 3.390625 -1.78125 L 2.015625 -3.0625 C 1.878906 -3.164062 1.757812 -3.242188 1.65625 -3.296875 C 1.550781 -3.347656 1.414062 -3.367188 1.25 -3.359375 L 1.96875 -0.484375 Z M 0.71875 -0.171875 "/></g></g></g><g fill="#ffffff" fill-opacity="1"><g transform="translate(170.05784, 98.432373)"><g><path d="M 2.9375 -0.203125 C 2.101562 -0.117188 1.4375 -0.238281 0.9375 -0.5625 C 0.4375 -0.894531 0.113281 -1.410156 -0.03125 -2.109375 L 1.171875 -2.421875 C 1.367188 -1.597656 1.9375 -1.234375 2.875 -1.328125 C 3.28125 -1.367188 3.585938 -1.476562 3.796875 -1.65625 C 4.015625 -1.832031 4.109375 -2.066406 4.078125 -2.359375 C 4.054688 -2.628906 3.921875 -2.820312 3.671875 -2.9375 C 3.429688 -3.050781 3.054688 -3.144531 2.546875 -3.21875 C 2.054688 -3.28125 1.640625 -3.375 1.296875 -3.5 C 0.953125 -3.625 0.675781 -3.804688 0.46875 -4.046875 C 0.269531 -4.296875 0.148438 -4.632812 0.109375 -5.0625 C 0.0664062 -5.488281 0.132812 -5.875 0.3125 -6.21875 C 0.5 -6.570312 0.769531 -6.863281 1.125 -7.09375 C 1.476562 -7.320312 1.90625 -7.460938 2.40625 -7.515625 C 3.070312 -7.585938 3.628906 -7.46875 4.078125 -7.15625 C 4.523438 -6.851562 4.816406 -6.398438 4.953125 -5.796875 L 3.84375 -5.484375 C 3.644531 -6.171875 3.1875 -6.476562 2.46875 -6.40625 C 2.125 -6.363281 1.847656 -6.238281 1.640625 -6.03125 C 1.441406 -5.832031 1.359375 -5.585938 1.390625 -5.296875 C 1.421875 -5.003906 1.550781 -4.789062 1.78125 -4.65625 C 2.007812 -4.53125 2.390625 -4.429688 2.921875 -4.359375 C 3.390625 -4.304688 3.796875 -4.222656 4.140625 -4.109375 C 4.484375 -4.003906 4.757812 -3.832031 4.96875 -3.59375 C 5.175781 -3.363281 5.304688 -3.023438 5.359375 -2.578125 C 5.398438 -2.179688 5.320312 -1.8125 5.125 -1.46875 C 4.9375 -1.125 4.65625 -0.84375 4.28125 -0.625 C 3.914062 -0.40625 3.46875 -0.265625 2.9375 -0.203125 Z M 2.9375 -0.203125 "/></g></g></g><g fill="#ffffff" fill-opacity="1"><g transform="translate(183.075501, 97.554976)"><g><path d="M 0.734375 0.03125 L 1.046875 -7.078125 L 2.34375 -7.015625 L 2.21875 -4.078125 L 5.59375 -3.9375 L 5.71875 -6.875 L 7.015625 -6.8125 L 6.703125 0.296875 L 5.40625 0.234375 L 5.53125 -2.796875 L 2.15625 -2.9375 L 2.03125 0.09375 Z M 0.734375 0.03125 "/></g></g></g><g fill="#ffffff" fill-opacity="1"><g transform="translate(197.615228, 98.755548)"><g><path d="M -0.09375 -0.015625 L 4.25 -6.390625 L 5.328125 -6.1875 L 6.8125 1.359375 L 5.515625 1.09375 L 5.203125 -0.625 L 2.171875 -1.21875 L 1.203125 0.234375 Z M 2.8125 -2.21875 L 5 -1.78125 L 4.484375 -4.734375 Z M 2.8125 -2.21875 "/></g></g></g><g fill="#ffffff" fill-opacity="1"><g transform="translate(211.300753, 102.036732)"><g><path d="M 7.921875 -4.75 L 7.390625 -3.71875 L 5.3125 -4.453125 L 3.328125 1.171875 L 2.09375 0.734375 L 4.078125 -4.890625 L 1.921875 -5.640625 L 2.296875 -6.71875 Z M 7.921875 -4.75 "/></g></g></g><g fill="#ffffff" fill-opacity="1"><g transform="translate(223.370167, 106.864728)"><g/></g></g><g fill="#ffffff" fill-opacity="1"><g transform="translate(231.901232, 111.463734)"><g><path d="M 2.40625 1.6875 C 1.707031 1.226562 1.265625 0.710938 1.078125 0.140625 C 0.898438 -0.421875 0.976562 -1.019531 1.3125 -1.65625 L 2.4375 -1.15625 C 2.070312 -0.363281 2.28125 0.285156 3.0625 0.796875 C 3.40625 1.023438 3.71875 1.132812 4 1.125 C 4.28125 1.113281 4.5 0.984375 4.65625 0.734375 C 4.800781 0.515625 4.816406 0.285156 4.703125 0.046875 C 4.585938 -0.191406 4.351562 -0.503906 4 -0.890625 C 3.664062 -1.234375 3.40625 -1.5625 3.21875 -1.875 C 3.03125 -2.1875 2.929688 -2.503906 2.921875 -2.828125 C 2.921875 -3.148438 3.039062 -3.492188 3.28125 -3.859375 C 3.507812 -4.210938 3.804688 -4.46875 4.171875 -4.625 C 4.546875 -4.78125 4.941406 -4.832031 5.359375 -4.78125 C 5.785156 -4.726562 6.207031 -4.566406 6.625 -4.296875 C 7.175781 -3.921875 7.53125 -3.472656 7.6875 -2.953125 C 7.84375 -2.441406 7.785156 -1.914062 7.515625 -1.375 L 6.453125 -1.828125 C 6.722656 -2.484375 6.554688 -3.007812 5.953125 -3.40625 C 5.671875 -3.59375 5.382812 -3.671875 5.09375 -3.640625 C 4.8125 -3.609375 4.59375 -3.46875 4.4375 -3.21875 C 4.28125 -2.976562 4.242188 -2.734375 4.328125 -2.484375 C 4.421875 -2.234375 4.65625 -1.914062 5.03125 -1.53125 C 5.351562 -1.1875 5.613281 -0.863281 5.8125 -0.5625 C 6.007812 -0.269531 6.113281 0.03125 6.125 0.34375 C 6.132812 0.65625 6.019531 1 5.78125 1.375 C 5.550781 1.71875 5.253906 1.960938 4.890625 2.109375 C 4.535156 2.253906 4.144531 2.289062 3.71875 2.21875 C 3.289062 2.15625 2.851562 1.976562 2.40625 1.6875 Z M 2.40625 1.6875 "/></g></g></g><g fill="#ffffff" fill-opacity="1"><g transform="translate(242.54241, 119.012942)"><g><path d="M 0.546875 0.484375 L 5.28125 -4.828125 L 6.25 -3.96875 L 4.296875 -1.765625 L 6.8125 0.484375 L 8.765625 -1.71875 L 9.734375 -0.859375 L 5 4.453125 L 4.03125 3.59375 L 6.046875 1.328125 L 3.53125 -0.921875 L 1.515625 1.34375 Z M 0.546875 0.484375 "/></g></g></g><g fill="#ffffff" fill-opacity="1"><g transform="translate(253.05049, 129.133527)"><g><path d="M -0.0625 -0.078125 L 7.359375 -2.265625 L 8.046875 -1.421875 L 4.4375 5.359375 L 3.578125 4.328125 L 4.421875 2.8125 L 2.453125 0.421875 L 0.78125 0.9375 Z M 3.578125 0.0625 L 5 1.78125 L 6.453125 -0.84375 Z M 3.578125 0.0625 "/></g></g></g><g fill="#ffffff" fill-opacity="1"><g transform="translate(261.584378, 140.315122)"><g><path d="M 4.34375 4.78125 L 3.65625 5.5625 C 3.488281 5.5 3.332031 5.398438 3.1875 5.265625 C 3.039062 5.140625 2.910156 4.984375 2.796875 4.796875 C 2.410156 4.148438 2.390625 3.472656 2.734375 2.765625 L 3.546875 1.078125 C 3.640625 0.890625 3.6875 0.726562 3.6875 0.59375 C 3.6875 0.46875 3.648438 0.347656 3.578125 0.234375 L 3.546875 0.1875 L 1.03125 1.703125 L 0.375 0.625 L 6.453125 -3.0625 L 7.59375 -1.171875 C 8.0625 -0.398438 8.257812 0.28125 8.1875 0.875 C 8.113281 1.46875 7.800781 1.929688 7.25 2.265625 C 6.90625 2.460938 6.5625 2.5625 6.21875 2.5625 C 5.882812 2.570312 5.566406 2.488281 5.265625 2.3125 C 4.972656 2.144531 4.710938 1.914062 4.484375 1.625 C 4.492188 1.84375 4.429688 2.09375 4.296875 2.375 L 3.890625 3.265625 C 3.773438 3.503906 3.71875 3.703125 3.71875 3.859375 C 3.71875 4.015625 3.769531 4.175781 3.875 4.34375 C 3.988281 4.539062 4.144531 4.6875 4.34375 4.78125 Z M 6.65625 -0.671875 L 6.203125 -1.421875 L 4.40625 -0.34375 L 4.828125 0.34375 C 5.109375 0.8125 5.390625 1.109375 5.671875 1.234375 C 5.953125 1.367188 6.253906 1.34375 6.578125 1.15625 C 7.160156 0.800781 7.1875 0.191406 6.65625 -0.671875 Z M 6.65625 -0.671875 "/></g></g></g><g fill="#ffffff" fill-opacity="1"><g transform="translate(268.153954, 152.024335)"><g><path d="M 0.265625 0.640625 L 6.953125 -1.78125 L 7.375 -0.734375 L 3.265625 3.75 L 9.34375 4.09375 L 9.765625 5.125 L 3.25 8 L 2.78125 6.84375 L 6.828125 5.0625 L 1.9375 4.765625 L 1.5625 3.84375 L 4.84375 0.265625 L 0.71875 1.75 Z M 0.265625 0.640625 "/></g></g></g><g fill="#ffffff" fill-opacity="1"><g transform="translate(273.72021, 167.533661)"><g><path d="M -0.015625 -0.09375 L 7.59375 1.28125 L 7.828125 2.359375 L 1.546875 6.78125 L 1.25 5.484375 L 2.6875 4.5 L 2 1.484375 L 0.265625 1.1875 Z M 3.171875 1.65625 L 3.671875 3.84375 L 6.140625 2.15625 Z M 3.171875 1.65625 "/></g></g></g></svg>